<?xml version="1.0" encoding="UTF-8"?><svg id="Layer_2" xmlns="http://www.w3.org/2000/svg" viewBox="0 0 39.35 67.16"><defs><style>.cls-1{fill:none;stroke-width:.2px;}.cls-1,.cls-2,.cls-3{stroke:#702b2a;stroke-miterlimit:10;}.cls-4{fill:#fff;}.cls-2{fill:#ecfeff;stroke-width:.21px;}.cls-3{fill:#ffd0d1;stroke-width:.16px;}</style></defs><g id="Layer_1-2"><g><path class="cls-2" d="M9.42,2.39H25.82V60.65c0,4.53-3.67,8.2-8.2,8.2h0c-4.53,0-8.2-3.67-8.2-8.2V2.39h0Z" transform="translate(14.51 -4) rotate(21.84)"/><path class="cls-3" d="M3.64,64.34c.59,.5,1.26,.91,1.99,1.2,3.69,1.48,7.88-.32,9.36-4.01l4.87-12.16c-2.51,1.1-5.1,3.95-10.05,3.2-2.68-.4-4.51-1.33-5.79-2.4l-2.4,6c-1.15,2.87-.34,6.15,2.01,8.16Z"/><g><g><line class="cls-1" x1="21.26" y1="10.48" x2="24.9" y2="10.74"/><line class="cls-1" x1="22.17" y1="11.79" x2="23.8" y2="11.91"/><line class="cls-1" x1="22.08" y1="13.03" x2="23.71" y2="13.15"/><line class="cls-1" x1="20.99" y1="14.19" x2="24.62" y2="14.46"/><line class="cls-1" x1="20.62" y1="15.41" x2="24.81" y2="15.72"/><line class="cls-1" x1="20.81" y1="16.67" x2="24.44" y2="16.94"/><line class="cls-1" x1="21.72" y1="17.98" x2="23.35" y2="18.1"/><line class="cls-1" x1="21.63" y1="19.22" x2="23.26" y2="19.34"/><line class="cls-1" x1="20.54" y1="20.39" x2="24.17" y2="20.65"/><line class="cls-1" x1="20.17" y1="21.61" x2="24.36" y2="21.91"/><line class="cls-1" x1="20.36" y1="22.86" x2="23.99" y2="23.13"/><line class="cls-1" x1="21.27" y1="24.18" x2="22.9" y2="24.29"/><line class="cls-1" x1="21.18" y1="25.41" x2="22.81" y2="25.53"/><line class="cls-1" x1="20.09" y1="26.58" x2="23.72" y2="26.84"/></g><g><path class="cls-1" d="M25.27,9.52c-.23,3.1-4.43,2.79-4.65,5.89-.23,3.1,3.98,3.4,3.75,6.5s-4.43,2.79-4.65,5.89"/><path class="cls-1" d="M21.07,9.22c-.23,3.1,3.98,3.4,3.75,6.5-.23,3.1-4.43,2.79-4.65,5.89-.23,3.1,3.98,3.4,3.75,6.5"/></g></g><g><g><line class="cls-1" x1="20.35" y1="31.67" x2="22.93" y2="34.25"/><line class="cls-1" x1="20.18" y1="33.26" x2="21.34" y2="34.41"/><line class="cls-1" x1="19.31" y1="34.13" x2="20.46" y2="35.29"/><line class="cls-1" x1="17.72" y1="34.3" x2="20.29" y2="36.88"/><line class="cls-1" x1="16.64" y1="34.98" x2="19.61" y2="37.95"/><line class="cls-1" x1="15.96" y1="36.05" x2="18.53" y2="38.63"/><line class="cls-1" x1="15.79" y1="37.64" x2="16.95" y2="38.8"/><line class="cls-1" x1="14.91" y1="38.52" x2="16.07" y2="39.68"/><line class="cls-1" x1="13.32" y1="38.69" x2="15.9" y2="41.27"/><line class="cls-1" x1="12.25" y1="39.37" x2="15.21" y2="42.34"/><line class="cls-1" x1="11.56" y1="40.44" x2="14.14" y2="43.02"/><line class="cls-1" x1="11.39" y1="42.03" x2="12.55" y2="43.19"/><line class="cls-1" x1="10.52" y1="42.91" x2="11.67" y2="44.06"/><line class="cls-1" x1="8.93" y1="43.07" x2="11.5" y2="45.65"/></g><g><path class="cls-1" d="M24.01,33.57c-2.2,2.19-5.17-.79-7.37,1.4s.78,5.18-1.42,7.37c-2.2,2.19-5.17-.79-7.37,1.4"/><path class="cls-1" d="M21.03,30.59c-2.2,2.19,.78,5.18-1.42,7.37-2.2,2.19-5.17-.79-7.37,1.4-2.2,2.19,.78,5.18-1.42,7.37"/></g></g><path class="cls-4" d="M6.62,62.96c.5,.22,1.09,0,1.31-.51s0-1.09-.51-1.31c-3.7-1.64-4.42-2.91,3.48-20.68L25.43,7.77c.22-.5,0-1.09-.51-1.31s-1.09,0-1.31,.51L9.08,39.66C1.74,56.18,.64,60.31,6.62,62.96Z"/><rect class="cls-2" x="20.5" y="3.39" width="19.36" height="1.78" rx=".85" ry=".85" transform="translate(3.76 -10.92) rotate(21.84)"/></g></g></svg>