<?xml version="1.0" encoding="UTF-8"?><svg id="Layer_2" xmlns="http://www.w3.org/2000/svg" viewBox="0 0 71.26 101.39"><defs><style>.cls-1{fill:#ecfeff;stroke-width:.27px;}.cls-1,.cls-2,.cls-3{stroke:#702b2a;stroke-miterlimit:10;}.cls-4{fill:#fff;}.cls-2{fill:none;stroke-width:.15px;}.cls-3{fill:#ffd0d1;stroke-width:.16px;}</style></defs><g id="Layer_1-2"><g><g><g><path class="cls-1" d="M46.9,3.37h0c5.76,0,10.44,4.68,10.44,10.44V88.01h-20.89V13.81c0-5.76,4.68-10.44,10.44-10.44Z" transform="translate(78.68 102.93) rotate(-163.3)"/><path class="cls-3" d="M35.12,84.94c4.81,1.44,9.89-1.3,11.33-6.1l11.49-38.31-15.36-12.16-13.57,45.23c-1.44,4.81,1.29,9.89,6.1,11.33Z"/><path class="cls-4" d="M35.77,82.76c.67,.2,1.38-.18,1.58-.85,.2-.67-.18-1.38-.85-1.58-4.94-1.48-6.05-2.97,1.07-26.68L50.66,10.01c.2-.67-.18-1.38-.85-1.58-.67-.2-1.38,.18-1.58,.85l-13.09,43.64c-6.62,22.05-7.35,27.44,.63,29.84Z"/><rect class="cls-1" x="46.92" y="3.37" width="24.66" height="2.27" rx="1.08" ry="1.08" transform="translate(114.72 25.84) rotate(-163.3)"/></g><g><g><line class="cls-2" x1="48.33" y1="44.5" x2="49.7" y2="46.15"/><line class="cls-2" x1="48.15" y1="45.42" x2="48.76" y2="46.16"/><line class="cls-2" x1="47.59" y1="45.89" x2="48.2" y2="46.63"/><line class="cls-2" x1="46.65" y1="45.9" x2="48.02" y2="47.55"/><line class="cls-2" x1="45.98" y1="46.24" x2="47.56" y2="48.14"/><line class="cls-2" x1="45.53" y1="46.83" x2="46.89" y2="48.48"/><line class="cls-2" x1="45.34" y1="47.75" x2="45.96" y2="48.49"/><line class="cls-2" x1="44.78" y1="48.22" x2="45.4" y2="48.96"/><line class="cls-2" x1="43.84" y1="48.23" x2="45.21" y2="49.88"/><line class="cls-2" x1="43.18" y1="48.57" x2="44.75" y2="50.47"/><line class="cls-2" x1="42.72" y1="49.16" x2="44.09" y2="50.81"/><line class="cls-2" x1="42.54" y1="50.08" x2="43.15" y2="50.82"/><line class="cls-2" x1="41.98" y1="50.55" x2="42.59" y2="51.29"/><line class="cls-2" x1="41.04" y1="50.56" x2="42.41" y2="52.21"/></g><path class="cls-2" d="M50.37,45.81c-1.4,1.17-2.98-.74-4.39,.43-1.4,1.17,.18,3.07-1.22,4.23s-2.98-.74-4.39,.43"/></g><g><g><line class="cls-2" x1="39.14" y1="56.4" x2="41.26" y2="56.05"/><line class="cls-2" x1="39.84" y1="57.02" x2="40.79" y2="56.87"/><line class="cls-2" x1="39.96" y1="57.74" x2="40.91" y2="57.59"/><line class="cls-2" x1="39.5" y1="58.56" x2="41.61" y2="58.21"/><line class="cls-2" x1="39.46" y1="59.3" x2="41.89" y2="58.9"/><line class="cls-2" x1="39.74" y1="60" x2="41.85" y2="59.65"/><line class="cls-2" x1="40.44" y1="60.62" x2="41.38" y2="60.47"/><line class="cls-2" x1="40.55" y1="61.34" x2="41.5" y2="61.19"/><line class="cls-2" x1="40.09" y1="62.16" x2="42.2" y2="61.81"/><line class="cls-2" x1="40.05" y1="62.9" x2="42.48" y2="62.5"/><line class="cls-2" x1="40.33" y1="63.6" x2="42.44" y2="63.25"/><line class="cls-2" x1="41.03" y1="64.22" x2="41.98" y2="64.06"/><line class="cls-2" x1="41.15" y1="64.94" x2="42.09" y2="64.78"/><line class="cls-2" x1="40.68" y1="65.76" x2="42.79" y2="65.41"/></g><path class="cls-2" d="M41.3,55.31c.3,1.8-2.15,2.2-1.85,4s2.74,1.4,3.03,3.2-2.15,2.2-1.85,4"/></g><g><g><line class="cls-2" x1="39.84" y1="71.16" x2="41.44" y2="72.58"/><line class="cls-2" x1="39.8" y1="72.1" x2="40.52" y2="72.74"/><line class="cls-2" x1="39.31" y1="72.65" x2="40.03" y2="73.28"/><line class="cls-2" x1="38.39" y1="72.8" x2="39.99" y2="74.22"/><line class="cls-2" x1="37.78" y1="73.24" x2="39.63" y2="74.88"/><line class="cls-2" x1="37.42" y1="73.89" x2="39.02" y2="75.31"/><line class="cls-2" x1="37.38" y1="74.83" x2="38.1" y2="75.47"/><line class="cls-2" x1="36.89" y1="75.38" x2="37.61" y2="76.01"/><line class="cls-2" x1="35.97" y1="75.53" x2="37.57" y2="76.95"/><line class="cls-2" x1="35.36" y1="75.97" x2="37.21" y2="77.6"/><line class="cls-2" x1="35" y1="76.62" x2="36.6" y2="78.04"/><line class="cls-2" x1="34.96" y1="77.56" x2="35.68" y2="78.2"/><line class="cls-2" x1="34.48" y1="78.11" x2="35.2" y2="78.74"/><line class="cls-2" x1="33.55" y1="78.26" x2="35.15" y2="79.68"/></g><path class="cls-2" d="M42.05,72.15c-1.21,1.36-3.06-.28-4.27,1.09-1.21,1.36,.64,3.01-.57,4.37-1.21,1.36-3.06-.28-4.27,1.09"/></g><g><g><line class="cls-2" x1="44.3" y1="33.86" x2="46.14" y2="32.76"/><line class="cls-2" x1="45.18" y1="34.18" x2="46.01" y2="33.69"/><line class="cls-2" x1="45.56" y1="34.81" x2="46.38" y2="34.31"/><line class="cls-2" x1="45.43" y1="35.74" x2="47.27" y2="34.63"/><line class="cls-2" x1="45.67" y1="36.45" x2="47.78" y2="35.17"/><line class="cls-2" x1="46.19" y1="36.99" x2="48.02" y2="35.88"/><line class="cls-2" x1="47.07" y1="37.31" x2="47.89" y2="36.81"/><line class="cls-2" x1="47.45" y1="37.93" x2="48.27" y2="37.43"/><line class="cls-2" x1="47.32" y1="38.86" x2="49.15" y2="37.75"/><line class="cls-2" x1="47.55" y1="39.57" x2="49.67" y2="38.29"/><line class="cls-2" x1="48.07" y1="40.11" x2="49.9" y2="39"/><line class="cls-2" x1="48.95" y1="40.43" x2="49.78" y2="39.93"/><line class="cls-2" x1="49.33" y1="41.05" x2="50.15" y2="40.56"/><line class="cls-2" x1="49.2" y1="41.98" x2="51.03" y2="40.88"/></g><path class="cls-2" d="M45.9,32.05c.94,1.56-1.18,2.84-.24,4.4s3.06,.28,4,1.84c.94,1.56-1.18,2.84-.23,4.4"/></g><path class="cls-2" d="M51.8,52.11c-.56,1.61,1.63,2.37,1.06,3.98s-2.75,.85-3.31,2.46c-.56,1.61,1.63,2.37,1.06,3.98"/><path class="cls-2" d="M55.44,40.11c-.56,1.61,1.63,2.37,1.06,3.98-.56,1.61-2.75,.85-3.31,2.46s1.63,2.37,1.06,3.98"/><path class="cls-2" d="M49.42,63.99c-.96,1.41,.94,2.72-.02,4.12s-2.87,.1-3.84,1.5,.94,2.72-.02,4.12"/><path class="cls-2" d="M45,75.27c-1.07,1.33,.74,2.78-.33,4.11s-2.87-.12-3.94,1.21c-1.07,1.33,.74,2.78-.33,4.11"/></g><g><g><path class="cls-1" d="M28.23,19.08h0c5.76,0,10.44,4.68,10.44,10.44V103.73H17.78V29.53c0-5.76,4.68-10.44,10.44-10.44Z" transform="translate(77.98 107.14) rotate(157.27)"/><path class="cls-3" d="M44.06,99.21c4.63-1.94,6.82-7.28,4.88-11.91l-15.45-36.89-19.59,.36,18.25,43.56c1.94,4.63,7.28,6.82,11.91,4.88Z"/><path class="cls-4" d="M43.18,97.11c.65-.27,.95-1.01,.68-1.66-.27-.65-1.01-.95-1.66-.68-4.76,1.99-6.55,1.55-16.12-21.29L8.48,31.45c-.27-.65-1.01-.95-1.66-.68-.65,.27-.95,1.01-.68,1.66l17.6,42.02c8.89,21.23,11.75,25.87,19.44,22.65Z"/><rect class="cls-1" x="-.72" y="20.61" width="24.66" height="2.27" rx="1.08" ry="1.08" transform="translate(30.72 37.31) rotate(157.27)"/></g><g><g><line class="cls-2" x1="28.58" y1="59.58" x2="30.68" y2="59.98"/><line class="cls-2" x1="29.02" y1="60.4" x2="29.97" y2="60.59"/><line class="cls-2" x1="28.89" y1="61.12" x2="29.83" y2="61.3"/><line class="cls-2" x1="28.17" y1="61.73" x2="30.27" y2="62.13"/><line class="cls-2" x1="27.87" y1="62.41" x2="30.29" y2="62.88"/><line class="cls-2" x1="27.89" y1="63.16" x2="30" y2="63.56"/><line class="cls-2" x1="28.34" y1="63.99" x2="29.28" y2="64.17"/><line class="cls-2" x1="28.2" y1="64.7" x2="29.14" y2="64.88"/><line class="cls-2" x1="27.48" y1="65.31" x2="29.58" y2="65.71"/><line class="cls-2" x1="27.19" y1="65.99" x2="29.61" y2="66.46"/><line class="cls-2" x1="27.21" y1="66.74" x2="29.31" y2="67.14"/><line class="cls-2" x1="27.65" y1="67.57" x2="28.59" y2="67.75"/><line class="cls-2" x1="27.51" y1="68.28" x2="28.46" y2="68.46"/><line class="cls-2" x1="26.8" y1="68.89" x2="28.9" y2="69.29"/></g><path class="cls-2" d="M30.98,59.3c-.34,1.79-2.77,1.32-3.12,3.12-.34,1.79,2.09,2.26,1.74,4.05s-2.77,1.33-3.12,3.12"/></g><g><g><line class="cls-2" x1="29.04" y1="74.6" x2="30.45" y2="72.99"/><line class="cls-2" x1="29.98" y1="74.64" x2="30.61" y2="73.92"/><line class="cls-2" x1="30.53" y1="75.12" x2="31.16" y2="74.4"/><line class="cls-2" x1="30.69" y1="76.04" x2="32.1" y2="74.43"/><line class="cls-2" x1="31.13" y1="76.65" x2="32.75" y2="74.79"/><line class="cls-2" x1="31.78" y1="77.01" x2="33.19" y2="75.4"/><line class="cls-2" x1="32.72" y1="77.04" x2="33.35" y2="76.32"/><line class="cls-2" x1="33.27" y1="77.52" x2="33.9" y2="76.8"/><line class="cls-2" x1="33.43" y1="78.45" x2="34.84" y2="76.84"/><line class="cls-2" x1="33.87" y1="79.05" x2="35.5" y2="77.2"/><line class="cls-2" x1="34.53" y1="79.41" x2="35.94" y2="77.8"/><line class="cls-2" x1="35.46" y1="79.45" x2="36.1" y2="78.72"/><line class="cls-2" x1="36.01" y1="79.93" x2="36.64" y2="79.2"/><line class="cls-2" x1="36.17" y1="80.85" x2="37.58" y2="79.24"/></g><path class="cls-2" d="M30.01,72.39c1.37,1.2-.26,3.06,1.11,4.26s3-.66,4.37,.54c1.37,1.2-.26,3.06,1.11,4.26"/></g><g><g><line class="cls-2" x1="38.96" y1="85.57" x2="41.09" y2="85.64"/><line class="cls-2" x1="39.52" y1="86.32" x2="40.48" y2="86.35"/><line class="cls-2" x1="39.49" y1="87.04" x2="40.45" y2="87.08"/><line class="cls-2" x1="38.88" y1="87.75" x2="41.01" y2="87.83"/><line class="cls-2" x1="38.69" y1="88.47" x2="41.15" y2="88.57"/><line class="cls-2" x1="38.82" y1="89.21" x2="40.96" y2="89.29"/><line class="cls-2" x1="39.38" y1="89.96" x2="40.34" y2="90"/><line class="cls-2" x1="39.36" y1="90.69" x2="40.32" y2="90.72"/><line class="cls-2" x1="38.74" y1="91.4" x2="40.88" y2="91.47"/><line class="cls-2" x1="38.55" y1="92.12" x2="41.02" y2="92.21"/><line class="cls-2" x1="38.69" y1="92.85" x2="40.83" y2="92.93"/><line class="cls-2" x1="39.25" y1="93.6" x2="40.21" y2="93.64"/><line class="cls-2" x1="39.22" y1="94.33" x2="40.18" y2="94.37"/><line class="cls-2" x1="38.61" y1="95.04" x2="40.75" y2="95.12"/></g><path class="cls-2" d="M41.29,84.92c-.07,1.82-2.54,1.73-2.61,3.55-.07,1.82,2.41,1.91,2.34,3.74s-2.54,1.73-2.61,3.55"/></g><g><g><line class="cls-2" x1="18.71" y1="53.92" x2="19.43" y2="51.9"/><line class="cls-2" x1="19.6" y1="53.61" x2="19.92" y2="52.7"/><line class="cls-2" x1="20.28" y1="53.85" x2="20.6" y2="52.94"/><line class="cls-2" x1="20.78" y1="54.65" x2="21.49" y2="52.63"/><line class="cls-2" x1="21.41" y1="55.04" x2="22.23" y2="52.72"/><line class="cls-2" x1="22.15" y1="55.13" x2="22.86" y2="53.12"/><line class="cls-2" x1="23.04" y1="54.82" x2="23.36" y2="53.92"/><line class="cls-2" x1="23.72" y1="55.06" x2="24.04" y2="54.16"/><line class="cls-2" x1="24.21" y1="55.86" x2="24.93" y2="53.85"/><line class="cls-2" x1="24.85" y1="56.26" x2="25.67" y2="53.93"/><line class="cls-2" x1="25.59" y1="56.35" x2="26.3" y2="54.33"/><line class="cls-2" x1="26.47" y1="56.04" x2="26.79" y2="55.13"/><line class="cls-2" x1="27.16" y1="56.28" x2="27.48" y2="55.37"/><line class="cls-2" x1="27.65" y1="57.08" x2="28.37" y2="55.06"/></g><path class="cls-2" d="M18.79,51.5c1.72,.61,.89,2.94,2.61,3.55s2.54-1.73,4.26-1.12,.89,2.94,2.61,3.55"/></g><path class="cls-2" d="M36.09,63.26c.59,1.6,2.76,.8,3.35,2.4,.59,1.6-1.58,2.4-.99,4s2.76,.8,3.35,2.4"/><path class="cls-2" d="M31.28,51.67c.59,1.6,2.76,.8,3.35,2.4,.59,1.6-1.58,2.4-.99,4s2.76,.8,3.35,2.4"/><path class="cls-2" d="M41.8,73.94c.15,1.7,2.45,1.5,2.6,3.2s-2.16,1.9-2.01,3.6c.15,1.7,2.45,1.5,2.6,3.2"/><path class="cls-2" d="M45.56,85.46c.02,1.71,2.34,1.68,2.35,3.38,.02,1.71-2.3,1.73-2.28,3.44s2.34,1.68,2.36,3.38"/></g></g></g></svg>