<svg width="140" height="289" xmlns="http://www.w3.org/2000/svg" xmlns:xlink="http://www.w3.org/1999/xlink" xml:space="preserve" overflow="hidden"><defs><clipPath id="clip0"><rect x="76" y="160" width="140" height="289"/></clipPath><clipPath id="clip1"><rect x="76" y="160" width="140" height="289"/></clipPath><clipPath id="clip2"><rect x="76" y="160" width="139" height="289"/></clipPath><clipPath id="clip3"><rect x="76" y="160" width="139" height="289"/></clipPath></defs><g clip-path="url(#clip0)" transform="translate(-76 -160)"><g clip-path="url(#clip1)"><g clip-path="url(#clip2)"><g clip-path="url(#clip3)"><path d="M815.33 161.865C813.329 168.612 811.971 175.554 807.211 181.246 793.233 197.947 765.798 197.781 752.239 180.769 751.524 179.874 750.816 178.978 749.328 177.1L749.328 192.233 742.943 192.233 742.943 91.5875 748.917 91.5875 748.917 135.471C749.899 135.153 750.462 135.153 750.636 134.893 759.485 121.515 772.415 118.286 787.187 121.031 802.566 123.884 811.335 133.773 814.398 148.906 814.608 149.925 815.012 150.9 815.323 151.897L815.323 161.858ZM808.352 156.874C808.366 138.584 796.744 126.528 779.111 126.542 761.969 126.557 749.422 139.465 749.552 156.946 749.689 174.413 761.825 186.852 778.938 187.054 796.433 187.256 808.338 175.048 808.352 156.881Z" fill="#FFFFFF" fill-rule="nonzero" fill-opacity="1" transform="matrix(1.00398 0 0 1 76.187 160)"/><path d="M417.536 192.399 398.74 192.399 398.74 91.4574C405.53 91.4574 412.154 91.2696 418.75 91.6091 420.129 91.6814 421.697 93.4511 422.694 94.7947 431.579 106.815 440.355 118.921 449.175 130.999 450.056 132.206 450.995 133.369 452.173 134.907 453.17 133.715 454.051 132.791 454.795 131.772 463.889 119.34 473.006 106.923 481.999 94.4119 483.574 92.2231 485.242 91.2768 487.98 91.378 493.687 91.5875 499.415 91.443 505.483 91.443L505.483 192.349 487.106 192.349 487.106 120.583 485.986 120.243C485.018 121.479 484.029 122.699 483.082 123.956 473.995 136.02 464.93 148.105 455.835 160.161 452.772 164.213 450.873 164.199 447.875 160.117 439.019 148.076 430.184 136.005 421.343 123.956 420.375 122.634 419.378 121.334 417.543 118.878L417.543 192.407Z" fill="#FFFFFF" fill-rule="nonzero" fill-opacity="1" transform="matrix(1.00398 0 0 1 76.187 160)"/><path d="M195.643 192.262 195.643 92.1581C196.011 91.862 196.242 91.508 196.466 91.5152 213.824 91.9342 231.428 90.7062 248.469 93.2489 270.002 96.4634 283.951 114.248 285.576 135.983 286.306 145.735 285.453 155.27 281.43 164.329 273.679 181.781 259.708 190.89 241.108 192.074 226.213 193.021 211.202 192.269 195.643 192.269ZM214.02 109.401C214.02 130.53 213.976 151.175 214.157 171.812 214.164 172.715 216.107 174.333 217.205 174.377 222.941 174.637 228.698 174.564 234.448 174.485 254.717 174.218 266.759 162.183 267.098 141.943 267.387 124.563 256.588 111.171 240.06 109.538 231.688 108.715 223.172 109.394 214.02 109.394Z" fill="#FFFFFF" fill-rule="nonzero" fill-opacity="1" transform="matrix(1.00398 0 0 1 76.187 160)"/><path d="M394.738 192.544C388.504 192.544 382.632 192.674 376.773 192.428 375.675 192.385 374.195 191.092 373.646 189.994 371.421 185.551 369.68 180.856 367.354 176.479 366.624 175.113 364.609 173.596 363.164 173.575 347.28 173.373 331.388 173.38 315.503 173.56 314.131 173.575 312.188 174.897 311.523 176.146 309.19 180.531 307.398 185.198 305.181 189.647 304.603 190.803 303.281 192.356 302.241 192.399 296.26 192.659 290.257 192.529 283.785 192.529 284.464 190.781 284.89 189.532 285.424 188.333 299.387 157.264 313.416 126.224 327.256 95.1053 328.578 92.1365 330.138 91.0674 333.309 91.2624 337.68 91.5297 342.1 91.1035 346.456 91.4502 347.995 91.573 350.205 92.736 350.79 94.0218 365.266 125.849 379.569 157.755 393.886 189.662 394.233 190.435 394.37 191.309 394.724 192.544ZM358.339 155.545C352.069 141.199 345.994 127.272 339.384 112.146 332.789 127.228 326.7 141.156 320.401 155.545L358.339 155.545Z" fill="#FFFFFF" fill-rule="nonzero" fill-opacity="1" transform="matrix(1.00398 0 0 1 76.187 160)"/><path d="M538.191 162.617 538.191 192.233 519.569 192.233 519.569 91.7753C520.248 91.6525 521.086 91.3563 521.931 91.3563 537.664 91.3202 553.397 91.154 569.122 91.3635 585.585 91.5875 598.652 101.852 602.733 117.282 608.931 140.686 593.177 161.865 568.841 162.573 558.872 162.862 548.882 162.624 538.184 162.624ZM538.35 145.02C549.503 145.02 560.115 145.62 570.625 144.84 579.568 144.175 585.361 136.662 585.52 127.691 585.686 118.77 580.145 110.65 571.383 109.863 560.49 108.881 549.445 109.632 538.35 109.632L538.35 145.02Z" fill="#FFFFFF" fill-rule="nonzero" fill-opacity="1" transform="matrix(1.00398 0 0 1 76.187 160)"/><path d="M715.551 135.384 715.551 121.414 722.074 121.414 722.074 192.204 715.638 192.204 715.638 178.877C706.001 190.384 694.162 195.433 679.484 192.992 669.797 191.381 662.01 186.476 656.282 178.487 644.818 162.501 648.516 138.844 664.56 127.163 678.133 117.282 701.985 116.653 715.551 135.391ZM716.179 156.715C715.927 139.292 703.191 126.773 685.855 126.896 668.923 127.019 656.144 140.159 656.448 157.141 656.758 174.406 669.79 187.451 686.303 187.04 703.921 186.599 716.425 173.907 716.179 156.715Z" fill="#FFFFFF" fill-rule="nonzero" fill-opacity="1" transform="matrix(1.00398 0 0 1 76.187 160)"/><path d="M627.489 192.139 627.489 91.6308 633.708 91.6308 633.708 192.139 627.489 192.139Z" fill="#FFFFFF" fill-rule="nonzero" fill-opacity="1" transform="matrix(1.00398 0 0 1 76.187 160)"/><path d="M1.14855 277.291 114.472 201.125 135.167 212.748 22.7975 289 1.14855 277.291Z" fill="#FFFFFF" fill-rule="nonzero" fill-opacity="1" transform="matrix(1.00398 0 0 1 76.187 160)"/><path d="M22.1185 0 136.272 76.8297 136.272 210.538 115.649 198.958 115.649 91.4791 115.599 91.1829 115.411 90.8001 115.093 90.5039 44.5477 41.94 44.0276 41.8461C43.8325 41.8461 43.6375 41.8966 43.4569 41.9833 43.0379 42.2 42.7851 42.619 42.7851 43.0813L42.7851 223.179 22.1185 237.583 22.1185 0Z" fill="#FFFFFF" fill-rule="nonzero" fill-opacity="1" transform="matrix(1.00398 0 0 1 76.187 160)"/><path d="M45.2556 68.0387 45.2556 45.4289 112.449 91.6741 97.1496 105.962 45.2556 68.0387Z" fill="#FFFFFF" fill-rule="nonzero" fill-opacity="1" transform="matrix(1.00398 0 0 1 76.187 160)"/><path d="M98.486 108.101 113.179 94.3757 113.179 174.131 98.486 184.374 98.486 108.101Z" fill="#FFFFFF" fill-rule="nonzero" fill-opacity="1" transform="matrix(1.00398 0 0 1 76.187 160)"/><path d="M22.1185 240.588 113.179 177.136 113.179 199.023 22.1185 260.229 22.1185 240.588Z" fill="#FFFFFF" fill-rule="nonzero" fill-opacity="1" transform="matrix(1.00398 0 0 1 76.187 160)"/><path d="M0 21.2228 19.6481 0.75125 19.6481 261.89 0 275.095 0 21.2228Z" fill="#FFFFFF" fill-rule="nonzero" fill-opacity="1" transform="matrix(1.00398 0 0 1 76.187 160)"/></g></g></g></g></svg>