<?xml version="1.0" encoding="UTF-8"?><svg id="Layer_2" xmlns="http://www.w3.org/2000/svg" viewBox="0 0 1128.71 400.08"><defs><style>.cls-1{fill:#fff;}</style></defs><g id="Layer_1-2"><g><g><path class="cls-1" d="M1128.71,224.08c-2.77,9.34-4.65,18.95-11.24,26.83-19.35,23.12-57.33,22.89-76.1-.66-.99-1.24-1.97-2.48-4.03-5.08v20.95h-8.84V126.79h8.27v60.75c1.36-.44,2.14-.44,2.38-.8,12.25-18.52,30.15-22.99,50.6-19.19,21.29,3.95,33.43,17.64,37.67,38.59,.29,1.41,.85,2.76,1.28,4.14v13.79Zm-9.66-6.91c.02-25.32-16.07-42.01-40.48-41.99-23.73,.02-41.1,17.89-40.92,42.09,.19,24.18,16.99,41.4,40.68,41.68,24.22,.28,40.7-16.62,40.72-41.77Z"/><path class="cls-1" d="M578.02,266.35h-26.02V126.61c9.4,0,18.57-.26,27.7,.21,1.91,.1,4.08,2.55,5.46,4.41,12.3,16.64,24.45,33.4,36.66,50.12,1.22,1.67,2.52,3.28,4.15,5.41,1.38-1.65,2.6-2.93,3.63-4.34,12.59-17.21,25.21-34.4,37.66-51.72,2.18-3.03,4.49-4.34,8.28-4.2,7.9,.29,15.83,.09,24.23,.09v139.69h-25.44v-99.35l-1.55-.47c-1.34,1.71-2.71,3.4-4.02,5.14-12.58,16.7-25.13,33.43-37.72,50.12-4.24,5.61-6.87,5.59-11.02-.06-12.26-16.67-24.49-33.38-36.73-50.06-1.34-1.83-2.72-3.63-5.26-7.03v101.79Z"/><path class="cls-1" d="M270.84,266.16V127.58c.51-.41,.83-.9,1.14-.89,24.03,.58,48.4-1.12,71.99,2.4,29.81,4.45,49.12,29.07,51.37,59.16,1.01,13.5-.17,26.7-5.74,39.24-10.73,24.16-30.07,36.77-55.82,38.41-20.62,1.31-41.4,.27-62.94,.27Zm25.44-114.71c0,29.25-.06,57.83,.19,86.4,.01,1.25,2.7,3.49,4.22,3.55,7.94,.36,15.91,.26,23.87,.15,28.06-.37,44.73-17.03,45.2-45.05,.4-24.06-14.55-42.6-37.43-44.86-11.59-1.14-23.38-.2-36.05-.2Z"/><path class="cls-1" d="M546.46,266.55c-8.63,0-16.76,.18-24.87-.16-1.52-.06-3.57-1.85-4.33-3.37-3.08-6.15-5.49-12.65-8.71-18.71-1.01-1.89-3.8-3.99-5.8-4.02-21.99-.28-43.99-.27-65.98-.02-1.9,.02-4.59,1.85-5.51,3.58-3.23,6.07-5.71,12.53-8.78,18.69-.8,1.6-2.63,3.75-4.07,3.81-8.28,.36-16.59,.18-25.55,.18,.94-2.42,1.53-4.15,2.27-5.81,19.33-43.01,38.75-85.98,57.91-129.06,1.83-4.11,3.99-5.59,8.38-5.32,6.05,.37,12.17-.22,18.2,.26,2.13,.17,5.19,1.78,6,3.56,20.04,44.06,39.84,88.23,59.66,132.4,.48,1.07,.67,2.28,1.16,3.99Zm-50.39-51.22c-8.68-19.86-17.09-39.14-26.24-60.08-9.13,20.88-17.56,40.16-26.28,60.08h52.52Z"/><path class="cls-1" d="M745.05,225.12v41h-25.78V127.05c.94-.17,2.1-.58,3.27-.58,21.78-.05,43.56-.28,65.33,.01,22.79,.31,40.88,14.52,46.53,35.88,8.58,32.4-13.23,61.72-46.92,62.7-13.8,.4-27.63,.07-42.44,.07Zm.22-24.36c15.44,0,30.13,.83,44.68-.25,12.38-.92,20.4-11.32,20.62-23.74,.23-12.35-7.44-23.59-19.57-24.68-15.08-1.36-30.37-.32-45.73-.32v48.99Z"/><path class="cls-1" d="M990.58,187.42v-19.34h9.03v98h-8.91v-18.45c-13.34,15.93-29.73,22.92-50.05,19.54-13.41-2.23-24.19-9.02-32.12-20.08-15.87-22.13-10.75-54.88,11.46-71.05,18.79-13.68,51.81-14.55,70.59,11.39Zm.87,29.53c-.35-24.12-17.98-41.45-41.98-41.28-23.44,.17-41.13,18.36-40.71,41.87,.43,23.9,18.47,41.96,41.33,41.39,24.39-.61,41.7-18.18,41.36-41.98Z"/><path class="cls-1" d="M868.67,265.99V126.85h8.61v139.14h-8.61Z"/></g><polygon class="cls-1" points="1.59 383.87 158.47 278.43 187.12 294.52 31.56 400.08 1.59 383.87"/><path class="cls-1" d="M30.62,0L188.65,106.36v185.1l-28.55-16.03V126.64l-.07-.41-.26-.53-.44-.41L61.67,58.06l-.72-.13c-.27,0-.54,.07-.79,.19-.58,.3-.93,.88-.93,1.52v249.32l-28.61,19.94V0Z"/><polygon class="cls-1" points="62.65 94.19 62.65 62.89 155.67 126.91 134.49 146.69 62.65 94.19"/><polygon class="cls-1" points="136.34 149.65 156.68 130.65 156.68 241.06 136.34 255.24 136.34 149.65"/><polygon class="cls-1" points="30.62 333.06 156.68 245.22 156.68 275.52 30.62 360.25 30.62 333.06"/><polygon class="cls-1" points="0 29.38 27.2 1.04 27.2 362.55 0 380.83 0 29.38"/></g></g></svg>