<?xml version="1.0" encoding="UTF-8"?><svg id="Layer_2" xmlns="http://www.w3.org/2000/svg" viewBox="0 0 81.02 89.45"><defs><style>.cls-1,.cls-2,.cls-3,.cls-4,.cls-5,.cls-6,.cls-7,.cls-8,.cls-9{stroke:#702b2a;stroke-miterlimit:10;}.cls-1,.cls-2,.cls-8{stroke-width:.47px;}.cls-1,.cls-3{fill:#e57c81;}.cls-2{fill:#ecfeff;}.cls-3,.cls-4,.cls-5,.cls-6,.cls-7{stroke-width:.47px;}.cls-4{fill:#fffed3;}.cls-5{fill:#92b1d3;}.cls-6,.cls-8{fill:#d0ffd1;}.cls-7{fill:#d0e4ff;}.cls-10{fill:#702b2a;}.cls-9{fill:none;stroke-width:.1px;}</style></defs><g id="Layer_1-2"><g><g><g><path class="cls-2" d="M38.1,39.85c-.28,8.02-7.01,14.29-15.03,14.01-.07,0-.13,0-.21-.01-.01,0-.03,0-.04,0-.62-.03-1.24-.1-1.83-.2-1.86-.33-3.58-1.01-5.11-1.97-.52-.33-1.02-.68-1.49-1.07h0c-1.76-1.43-3.17-3.27-4.1-5.36-.26-.58-.48-1.17-.65-1.78-.44-1.47-.64-3.02-.59-4.63,.09-2.58,.85-4.98,2.11-7.03l-2.31-2.49c-1.84,2.69-2.97,5.92-3.09,9.42-.07,2.13,.23,4.19,.85,6.11,.19,.6,.42,1.19,.68,1.76,1.21,2.72,3.09,5.09,5.44,6.89,.48,.37,.98,.72,1.51,1.04,.25,.15,.49,.3,.75,.44,1.61,.89,3.39,1.54,5.27,1.89,.34,.06,.68,.12,1.03,.16,.26,.03,.53,.06,.8,.09,.29,.03,.58,.04,.87,.05,9.84,.34,18.09-7.36,18.43-17.19,.14-3.95-1.02-7.64-3.09-10.66l-2.31,2.5c1.43,2.34,2.21,5.1,2.11,8.05Z"/><path class="cls-8" d="M11.69,31c.36-.51,.75-1,1.17-1.46,.34-.37,.71-.73,1.09-1.06l-2.23-2.41c-.54,.48-1.06,.99-1.54,1.54-.41,.47-.79,.96-1.16,1.46-.05,.08-.1,.16-.16,.24l2.31,2.49c.17-.27,.34-.54,.52-.8Z"/><path class="cls-1" d="M35.45,26.06l-2.24,2.42c1.08,.96,2.02,2.08,2.78,3.32l2.31-2.5c-.82-1.19-1.78-2.28-2.85-3.24Z"/></g><g><rect class="cls-4" x="18.93" y=".23" width="5.13" height="3.71"/><rect class="cls-3" x="41.8" y=".23" width="5.13" height="3.71"/><rect class="cls-7" x="24.07" y=".23" width="17.71" height="3.71" transform="translate(65.85 4.18) rotate(180)"/><rect class="cls-6" x=".23" y="7.01" width="5.13" height="3.71"/><rect class="cls-4" x="23.1" y="7.01" width="5.13" height="3.71"/><rect class="cls-5" x="5.38" y="7.01" width="17.71" height="3.71" transform="translate(28.47 17.73) rotate(180)"/></g><line class="cls-9" x1=".23" y1="10.72" x2="8.86" y2="29.31"/><line class="cls-9" x1="11.71" y1="26.07" x2="5.36" y2="10.72"/><line class="cls-9" x1="35.45" y1="26.06" x2="41.78" y2="3.95"/><line class="cls-9" x1="38.3" y1="29.31" x2="46.93" y2="3.95"/></g><g><g><g><path class="cls-5" d="M51.09,58.1l2.24,2.42c1.95-1.74,4.37-2.94,7.03-3.43v-3.34c-3.52,.52-6.73,2.07-9.27,4.35Z"/><path class="cls-7" d="M73.81,57.23c-.48-.37-.99-.72-1.51-1.04-.25-.15-.49-.3-.75-.44-1.61-.89-3.39-1.54-5.27-1.89-.23-.04-.46-.07-.7-.11v3.32c1.84,.33,3.56,1.01,5.08,1.96,.52,.33,1.02,.68,1.49,1.07h0c.16,.13,.3,.28,.45,.41l2.25-2.43c-.34-.3-.69-.59-1.05-.87Z"/><path class="cls-4" d="M65.25,53.7c-.26-.03-.53-.06-.8-.09-.29-.03-.58-.04-.87-.05-1.1-.04-2.18,.04-3.23,.19v3.34c1.01-.18,2.05-.27,3.12-.24,.07,0,.13,0,.21,.01,.01,0,.03,0,.04,0,.62,.03,1.24,.1,1.83,.2h.03v-3.32c-.11-.02-.22-.04-.33-.05Z"/></g><path class="cls-8" d="M51.08,63.05c.36-.51,.75-1,1.17-1.46,.34-.37,.71-.73,1.09-1.06h-.01c-1.08,.95-2.02,2.07-2.78,3.31h0c.17-.26,.34-.53,.52-.79Z"/><path class="cls-8" d="M48.4,61.12s-.06,.09-.09,.14c.03-.05,.06-.09,.09-.14h0Z"/><path class="cls-8" d="M50.55,63.84c.76-1.25,1.7-2.36,2.78-3.32l-2.22-2.4c-.54,.48-1.06,.99-1.54,1.54-.41,.47-.79,.96-1.16,1.46-.03,.05-.06,.09-.09,.14-.02,.03-.04,.07-.07,.1l2.3,2.49Z"/><path class="cls-1" d="M74.11,62.08c-.46-.56-.97-1.08-1.51-1.56h0c.54,.48,1.05,1,1.51,1.56Z"/><path class="cls-1" d="M75.38,63.85h0c-.38-.63-.81-1.21-1.27-1.77,.46,.56,.89,1.15,1.27,1.77Z"/><path class="cls-1" d="M74.11,62.08h0c.46,.56,.9,1.14,1.27,1.76l2.3-2.49c-.82-1.19-1.78-2.28-2.85-3.24l-2.24,2.42c.54,.48,1.05,1,1.51,1.56Z"/></g><path class="cls-2" d="M80.78,71.76c0-.43,0-.86-.01-1.29,0-.19-.03-.38-.05-.56-.03-.31-.05-.62-.09-.92-.03-.24-.08-.47-.12-.7-.04-.24-.08-.49-.14-.73-.06-.28-.13-.55-.21-.82-.05-.19-.1-.37-.15-.55-.07-.24-.16-.48-.24-.72-.11-.32-.24-.64-.37-.95-.1-.24-.2-.49-.31-.72-.02-.04-.04-.09-.06-.13-.39-.81-.83-1.58-1.34-2.32l-2.3,2.49c.15,.25,.28,.51,.41,.76,.05,.09,.1,.19,.15,.28,.1,.2,.21,.39,.31,.59,.26,.58,.48,1.17,.65,1.78,.03,.09,.05,.19,.07,.28,.03,.12,.06,.24,.09,.35,.06,.23,.11,.46,.16,.69,.03,.15,.05,.3,.08,.45,.03,.21,.07,.41,.09,.62,.02,.2,.04,.41,.05,.62,.01,.16,.03,.32,.04,.49,.01,.3,.01,.61,0,.92,0,.07,0,.14,0,.21h0v.04c-.02,.42-.06,.84-.11,1.26-.02,.13-.03,.26-.05,.38-.06,.38-.13,.76-.21,1.14-.04,.17-.09,.33-.14,.5-.06,.2-.11,.41-.18,.61-.07,.22-.14,.44-.22,.65l-.02,.04c-.21,.56-.45,1.09-.73,1.61v.03c-.15,.26-.29,.53-.45,.78-.76,1.25-1.7,2.36-2.78,3.32-2.69,2.39-6.26,3.8-10.15,3.67-.07,0-.13,0-.21-.01-.01,0-.03,0-.04,0-.62-.03-1.24-.1-1.83-.2-1.86-.33-3.58-1.01-5.11-1.97-.52-.33-1.02-.68-1.49-1.07h0c-.16-.13-.3-.28-.45-.41-.54-.48-1.05-1-1.51-1.56h0c-.46-.56-.9-1.14-1.27-1.76-.15-.25-.28-.51-.41-.76-.05-.09-.1-.19-.15-.28-.1-.2-.21-.39-.3-.59-.26-.58-.48-1.17-.65-1.78-.03-.09-.05-.19-.07-.28-.03-.12-.06-.24-.09-.35-.06-.23-.11-.46-.16-.69-.03-.15-.05-.3-.08-.45-.03-.21-.07-.41-.09-.62-.02-.2-.04-.41-.05-.62-.01-.16-.03-.32-.04-.49-.01-.3-.01-.61,0-.92,0-.07,0-.14,0-.21h0v-.04c.02-.42,.06-.84,.11-1.26,.02-.13,.03-.26,.05-.38,.06-.38,.13-.76,.21-1.14,.04-.17,.09-.33,.14-.5,.06-.21,.11-.41,.18-.61,.07-.22,.14-.44,.22-.65l.02-.04c.21-.56,.45-1.09,.73-1.61v-.03c.15-.26,.29-.53,.45-.78l-2.3-2.49c-.66,.96-1.22,1.99-1.68,3.08-.06,.13-.11,.27-.16,.41-.12,.3-.24,.6-.34,.91-.14,.41-.26,.82-.37,1.24-.05,.21-.09,.43-.14,.65-.07,.32-.13,.64-.18,.97-.03,.19-.06,.38-.08,.58-.06,.51-.11,1.02-.13,1.54,0,.01,0,.03,0,.04,0,.08,0,.16,0,.24,0,.43,0,.86,.01,1.29,0,.19,.03,.37,.05,.56,.03,.31,.05,.62,.09,.93,.03,.24,.08,.47,.12,.7,.04,.24,.08,.49,.14,.73,.06,.28,.13,.55,.21,.82,.05,.19,.1,.37,.15,.55,.07,.24,.16,.48,.24,.72,.11,.32,.24,.64,.37,.95,.1,.24,.2,.49,.31,.72,.02,.04,.04,.09,.06,.13,.27,.55,.57,1.08,.88,1.6,.09,.15,.18,.29,.28,.44,.06,.09,.11,.19,.18,.28,.1,.15,.23,.28,.33,.43,.28,.39,.57,.77,.89,1.14,.11,.13,.23,.26,.35,.38,.38,.42,.78,.83,1.2,1.21,.03,.03,.05,.06,.08,.08h0c.34,.3,.67,.61,1.03,.88,.48,.37,.98,.72,1.51,1.04,.25,.15,.49,.3,.75,.44,1.61,.89,3.39,1.54,5.27,1.89,.34,.06,.68,.12,1.03,.16,.26,.03,.53,.06,.8,.09,.29,.03,.58,.04,.87,.05,5.56,.19,10.6-2.19,14-6.06l.03-.03s.02-.03,.04-.04c.39-.45,.77-.92,1.12-1.42,.03-.05,.06-.09,.09-.14,.02-.03,.04-.07,.07-.1,.66-.96,1.22-1.99,1.68-3.08,.06-.13,.11-.27,.16-.41,.12-.3,.24-.6,.34-.91,.14-.41,.26-.82,.37-1.24,.05-.21,.09-.43,.14-.65,.07-.32,.13-.64,.18-.97,.03-.19,.06-.38,.08-.58,.06-.51,.11-1.02,.13-1.54,0-.01,0-.03,0-.04,0-.08,0-.16,0-.24Z"/></g><g><path class="cls-10" d="M52.43,53.31c.32-2.77-.48-5.37-2.53-7.3-1.48-1.39-3.4-2.25-5.35-2.71-.44-.1-.89-.2-1.35-.25,.01,0,.16,.35,.28,.37,3.09,.31,6.66,1.95,8.01,4.87,.68,1.46,.8,3.1,.62,4.68-.01,.11,.31,.34,.31,.34h0Z"/><path class="cls-10" d="M51.1,52.36l.98,1.13c.05,.06,.2,.02,.25,.01,.08-.02,.21-.05,.26-.12l.81-1.06c.07-.1-.07-.12-.14-.12-.11,0-.3,.04-.37,.14l-.81,1.06,.51-.11-.98-1.13c-.1-.12-.63,.08-.52,.2h0Z"/></g></g></g></svg>