<?xml version="1.0" encoding="UTF-8"?><svg id="Layer_2" xmlns="http://www.w3.org/2000/svg" viewBox="0 0 114.5 88.12"><defs><style>.cls-1{stroke-width:.54px;}.cls-1,.cls-2,.cls-3,.cls-4,.cls-5,.cls-6,.cls-7{stroke:#702b2a;}.cls-1,.cls-2,.cls-6,.cls-7{fill:none;stroke-linecap:round;stroke-linejoin:round;}.cls-8{fill:#702b2a;}.cls-2{stroke-width:.26px;}.cls-3{fill:#ffd59f;}.cls-3,.cls-4,.cls-5{stroke-miterlimit:10;stroke-width:.22px;}.cls-4{fill:#e57c81;}.cls-5{fill:#d0e4ff;}.cls-6{stroke-width:.33px;}.cls-7{stroke-width:.43px;}</style></defs><g id="Layer_1-2"><g><g><rect class="cls-4" x="31.78" y="29.66" width="21.49" height="4.14" transform="translate(8.53 -9) rotate(13.42)"/><rect class="cls-3" x="52.87" y="33" width="7.28" height="4.14" transform="translate(103.34 82.3) rotate(-166.58)"/><rect class="cls-5" x="59.85" y="35.56" width="14.75" height="4.14" transform="translate(10.57 -14.58) rotate(13.42)"/><rect class="cls-3" x="30.72" y="33.43" width="9.98" height="4.14" transform="translate(9.22 -7.32) rotate(13.42)"/><rect class="cls-5" x="40.35" y="36.36" width="15.26" height="4.14" transform="translate(85.73 86.95) rotate(-166.58)"/><rect class="cls-4" x="55.15" y="40.25" width="18.28" height="4.14" transform="translate(11.58 -13.77) rotate(13.42)"/><rect class="cls-4" x="29.46" y="38.84" width="12.6" height="4.14" transform="translate(10.47 -7.18) rotate(13.42)"/><rect class="cls-3" x="41.6" y="42.77" width="21.23" height="4.14" transform="translate(92.61 100.57) rotate(-166.58)"/><rect class="cls-5" x="62.42" y="46.35" width="9.68" height="4.14" transform="translate(13.08 -14.29) rotate(13.42)"/><rect class="cls-3" x="28.33" y="43.23" width="6.48" height="4.14" transform="translate(11.38 -6.09) rotate(13.42)"/><rect class="cls-5" x="34.51" y="45.77" width="15.41" height="4.14" transform="translate(72.17 104.18) rotate(-166.58)"/><rect class="cls-4" x="49.41" y="50.07" width="21.63" height="4.14" transform="translate(13.75 -12.56) rotate(13.42)"/><rect class="cls-4" x="26.96" y="49.63" width="17.61" height="4.14" transform="translate(12.98 -6.89) rotate(13.42)"/><rect class="cls-3" x="44.04" y="54.12" width="21.07" height="4.14" transform="translate(94.61 123.51) rotate(-166.58)"/><rect class="cls-5" x="64.75" y="57.13" width="4.84" height="4.14" transform="translate(15.58 -13.98) rotate(13.42)"/><rect class="cls-3" x="25.79" y="54.27" width="13.66" height="4.14" transform="translate(13.97 -6.03) rotate(13.42)"/><rect class="cls-5" x="39.14" y="56.97" width="9.56" height="4.14" transform="translate(72.93 126.67) rotate(-166.58)"/><rect class="cls-4" x="48.29" y="60.44" width="20.3" height="4.14" transform="translate(16.11 -11.86) rotate(13.42)"/></g><g><g><line class="cls-1" x1="102.82" y1="21.55" x2="111.85" y2="26.46"/><line class="cls-1" x1="103.64" y1="25.98" x2="107.69" y2="28.18"/><line class="cls-1" x1="101.97" y1="29.06" x2="106.02" y2="31.26"/><line class="cls-1" x1="97.81" y1="30.78" x2="106.84" y2="35.69"/><line class="cls-1" x1="95.45" y1="33.49" x2="105.85" y2="39.14"/><line class="cls-1" x1="94.46" y1="36.94" x2="103.49" y2="41.85"/><line class="cls-1" x1="95.28" y1="41.37" x2="99.33" y2="43.57"/><line class="cls-1" x1="93.61" y1="44.45" x2="97.66" y2="46.65"/><line class="cls-1" x1="89.45" y1="46.17" x2="98.48" y2="51.08"/><line class="cls-1" x1="87.09" y1="48.88" x2="97.49" y2="54.53"/><line class="cls-1" x1="86.1" y1="52.33" x2="95.13" y2="57.24"/><line class="cls-1" x1="86.92" y1="56.76" x2="90.97" y2="58.96"/><line class="cls-1" x1="85.25" y1="59.84" x2="89.3" y2="62.04"/><line class="cls-1" x1="81.09" y1="61.56" x2="90.12" y2="66.47"/></g><g><path class="cls-1" d="M114.23,23.76c-4.18,7.69-14.62,2.02-18.8,9.71-4.18,7.69,6.26,13.37,2.08,21.06-4.18,7.7-14.62,2.02-18.8,9.72"/><path class="cls-1" d="M103.79,18.09c-4.18,7.69,6.26,13.37,2.08,21.06s-14.62,2.02-18.8,9.72c-4.18,7.7,6.26,13.37,2.08,21.06"/></g></g><g><g><line class="cls-7" x1="75.95" y1="4.38" x2="83.99" y2="3.06"/><line class="cls-7" x1="78.61" y1="6.76" x2="82.22" y2="6.16"/><line class="cls-7" x1="79.06" y1="9.5" x2="82.68" y2="8.91"/><line class="cls-7" x1="77.3" y1="12.61" x2="85.34" y2="11.28"/><line class="cls-7" x1="77.13" y1="15.45" x2="86.41" y2="13.92"/><line class="cls-7" x1="78.2" y1="18.09" x2="86.24" y2="16.77"/><line class="cls-7" x1="80.87" y1="20.47" x2="84.48" y2="19.87"/><line class="cls-7" x1="81.32" y1="23.21" x2="84.93" y2="22.62"/><line class="cls-7" x1="79.55" y1="26.32" x2="87.6" y2="24.99"/><line class="cls-7" x1="79.39" y1="29.16" x2="88.66" y2="27.63"/><line class="cls-7" x1="80.45" y1="31.8" x2="88.5" y2="30.48"/><line class="cls-7" x1="83.12" y1="34.18" x2="86.73" y2="33.58"/><line class="cls-7" x1="83.57" y1="36.92" x2="87.18" y2="36.32"/><line class="cls-7" x1="81.8" y1="40.02" x2="89.85" y2="38.7"/></g><g><path class="cls-7" d="M84.17,.21c1.13,6.85-8.18,8.38-7.05,15.24,1.13,6.85,10.43,5.33,11.56,12.18,1.13,6.86-8.18,8.38-7.05,15.24"/><path class="cls-7" d="M74.87,1.74c1.13,6.85,10.43,5.32,11.56,12.18,1.13,6.85-8.18,8.38-7.05,15.24,1.13,6.86,10.43,5.33,11.56,12.18"/></g></g><g><g><line class="cls-6" x1="16.78" y1="60.13" x2="22.37" y2="63.17"/><line class="cls-6" x1="17.28" y1="62.87" x2="19.79" y2="64.24"/><line class="cls-6" x1="16.25" y1="64.78" x2="18.76" y2="66.14"/><line class="cls-6" x1="13.67" y1="65.85" x2="19.26" y2="68.89"/><line class="cls-6" x1="12.21" y1="67.52" x2="18.66" y2="71.02"/><line class="cls-6" x1="11.6" y1="69.66" x2="17.19" y2="72.7"/><line class="cls-6" x1="12.11" y1="72.4" x2="14.62" y2="73.77"/><line class="cls-6" x1="11.07" y1="74.31" x2="13.58" y2="75.67"/><line class="cls-6" x1="8.49" y1="75.38" x2="14.09" y2="78.42"/><line class="cls-6" x1="7.03" y1="77.05" x2="13.48" y2="80.56"/><line class="cls-6" x1="6.42" y1="79.19" x2="12.02" y2="82.23"/><line class="cls-6" x1="6.93" y1="81.94" x2="9.44" y2="83.3"/><line class="cls-6" x1="5.89" y1="83.84" x2="8.4" y2="85.21"/><line class="cls-6" x1="3.32" y1="84.91" x2="8.91" y2="87.95"/></g><path class="cls-6" d="M23.84,61.5c-2.59,4.77-9.06,1.25-11.65,6.02-2.59,4.77,3.88,8.28,1.29,13.05-2.59,4.77-9.06,1.25-11.65,6.02"/></g><g><g><line class="cls-2" x1=".13" y1="49.49" x2="5.11" y2="48.68"/><line class="cls-2" x1="1.78" y1="50.97" x2="4.02" y2="50.6"/><line class="cls-2" x1="2.06" y1="52.66" x2="4.3" y2="52.3"/><line class="cls-2" x1=".97" y1="54.59" x2="5.95" y2="53.77"/><line class="cls-2" x1=".87" y1="56.35" x2="6.61" y2="55.41"/><line class="cls-2" x1="1.53" y1="57.98" x2="6.51" y2="57.17"/><line class="cls-2" x1="3.18" y1="59.46" x2="5.42" y2="59.09"/><line class="cls-2" x1="3.46" y1="61.16" x2="5.7" y2="60.79"/><line class="cls-2" x1="2.36" y1="63.08" x2="7.35" y2="62.26"/><line class="cls-2" x1="2.26" y1="64.84" x2="8.01" y2="63.9"/><line class="cls-2" x1="2.92" y1="66.48" x2="7.91" y2="65.66"/><line class="cls-2" x1="4.57" y1="67.95" x2="6.81" y2="67.58"/><line class="cls-2" x1="4.85" y1="69.65" x2="7.09" y2="69.28"/><line class="cls-2" x1="3.76" y1="71.57" x2="8.74" y2="70.75"/></g><path class="cls-2" d="M5.23,46.91c.7,4.25-5.06,5.19-4.37,9.44,.7,4.25,6.46,3.3,7.16,7.54,.7,4.25-5.06,5.19-4.37,9.44"/></g><g><path class="cls-8" d="M37.29,70.75c-1.76,3.13-4.54,5.41-8.18,5.8-2.57,.28-5.2-.31-7.57-1.3-.52-.22-1.03-.45-1.52-.72-.11-.06,.14,.42,.26,.49,3.73,2.14,8.9,3.04,12.82,.96,1.99-1.05,3.46-2.77,4.55-4.71,.08-.15-.36-.54-.37-.52h0Z"/><path class="cls-8" d="M35.87,71.48l1.69-.4,.24-.06-.43-.2,.04,1.55v.22c.01,.17,.18,.24,.34,.22,.13-.01,.41-.11,.41-.28l-.04-1.55v-.22c-.01-.22-.27-.24-.44-.2l-1.69,.4-.24,.06c-.14,.03-.35,.16-.31,.33s.3,.17,.43,.13h0Z"/></g><g><path class="cls-8" d="M68.18,16.91c-3.43-1.26-7.09-1.14-10.13,1.01-2.11,1.49-3.71,3.65-4.84,5.94-.24,.48-.47,.98-.65,1.49-.05,.14,.36,.54,.39,.48,1.42-4.02,4.76-8.03,9.04-9.01,2.19-.5,4.44-.16,6.53,.61,0,0-.16-.46-.32-.52h0Z"/><path class="cls-8" d="M67.08,18.27l1.55-.8,.22-.11c.12-.06,.3-.21,.18-.36l-1.12-1.38c-.11-.14-.36-.11-.5-.04-.12,.06-.3,.21-.18,.36l1.12,1.38,.18-.36-1.55,.8-.22,.11c-.12,.06-.29,.21-.18,.36,.11,.14,.36,.11,.5,.04h0Z"/></g></g></g></svg>