<?xml version="1.0" encoding="UTF-8"?><svg id="Layer_2" xmlns="http://www.w3.org/2000/svg" viewBox="0 0 114.26 63.93"><defs><style>.cls-1{fill:#702b2a;}.cls-2{fill:#d0e4ff;}.cls-2,.cls-3,.cls-4,.cls-5{stroke-miterlimit:10;stroke-width:.25px;}.cls-2,.cls-3,.cls-4,.cls-5,.cls-6,.cls-7,.cls-8{stroke:#702b2a;}.cls-3{fill:#ffd0d1;}.cls-4{fill:#ffd59f;}.cls-5{fill:#e57c81;}.cls-6{fill:#2d2425;}.cls-6,.cls-7,.cls-8{stroke-linecap:round;stroke-linejoin:round;stroke-width:.42px;}.cls-7{fill:#fff;}.cls-8{fill:#7f7f7f;}</style></defs><g id="Layer_1-2"><g><g><g><rect class="cls-4" x="46.49" y="2.67" width="15.42" height="1.6" rx=".8" ry=".8"/><rect class="cls-4" x="65.81" y="2.67" width="15.42" height="1.6" rx=".8" ry=".8"/><rect class="cls-4" x="82.03" y="2.67" width="15.42" height="1.6" rx=".8" ry=".8"/><rect class="cls-4" x="98.25" y="2.67" width="15.42" height="1.6" rx=".8" ry=".8"/></g><g><rect class="cls-4" x="36.56" y="5.22" width="15.42" height="1.6" rx=".8" ry=".8"/><rect class="cls-4" x="55.38" y="5.22" width="15.42" height="1.6" rx=".8" ry=".8"/><rect class="cls-4" x="77.87" y="5.22" width="15.42" height="1.6" rx=".8" ry=".8"/></g><g><rect class="cls-4" x="42.14" y="7.77" width="15.42" height="1.6" rx=".8" ry=".8"/><rect class="cls-4" x="58.28" y="7.77" width="15.42" height="1.6" rx=".8" ry=".8"/><rect class="cls-4" x="74.41" y="7.77" width="15.42" height="1.6" rx=".8" ry=".8"/></g><g><rect class="cls-4" x="36.38" y="10.32" width="15.42" height="1.6" rx=".8" ry=".8"/><rect class="cls-4" x="52.51" y="10.32" width="15.42" height="1.6" rx=".8" ry=".8"/><rect class="cls-4" x="68.65" y="10.32" width="15.42" height="1.6" rx=".8" ry=".8"/></g><g><rect class="cls-4" x="36.44" y=".13" width="15.42" height="1.6" rx=".8" ry=".8"/><rect class="cls-4" x="56.71" y=".13" width="15.42" height="1.6" rx=".8" ry=".8"/><rect class="cls-4" x="75.32" y=".13" width="15.42" height="1.6" rx=".8" ry=".8"/><rect class="cls-4" x="94" y=".13" width="15.42" height="1.6" rx=".8" ry=".8"/></g><rect class="cls-5" x="36.38" y="15.87" width="53.36" height="1.6" rx=".8" ry=".8"/><rect class="cls-2" x="36.38" y="36.82" width="77.75" height="1.6" rx=".8" ry=".8"/><rect class="cls-3" x="90.48" y="15.87" width="23.58" height="1.6" rx=".8" ry=".8"/><g><path class="cls-1" d="M71.18,33.35c-1.11-2.68-1.07-5.57,.59-8.01,1.09-1.6,2.66-2.85,4.35-3.78,.37-.2,.74-.4,1.13-.55,.04-.02-.18-.45-.29-.4-3.17,1.27-6.26,4.1-6.79,7.59-.26,1.68,.1,3.36,.74,4.92,.03,.08,.35,.44,.27,.24h0Z"/><path class="cls-1" d="M71.43,32.06l-.57,1.23-.08,.18,.5-.13-1.11-.83c-.19-.14-.7,.13-.45,.32l1.11,.83c.14,.1,.43,.02,.5-.13l.57-1.23,.08-.18c.06-.12-.05-.21-.17-.22-.13,0-.32,.04-.38,.17h0Z"/></g></g><g><polygon class="cls-8" points="19.78 21.15 14.23 24.62 15.94 37.92 19.52 37.85 19.78 21.15"/><path class="cls-6" d="M19.52,37.85l-1-14.42c-.1-1.42,1.05-2.61,2.47-2.56l17.8,.62c1.34,.05,2.45,1.06,2.62,2.4l1.65,13.52-23.54,.44Z"/><path class="cls-6" d="M14.23,24.62l-5.67-.09c-1.24-.02-2.47,.21-3.62,.67l-3.18,1.27c-.94,.38-1.55,1.29-1.55,2.3l.14,26.32c0,1.15,.57,2.22,1.51,2.87l7.37,5.14L14.23,24.62Z"/><path class="cls-7" d="M17.51,24.86l1.08,13,2.66,25.06-10.1,.79c-1.49,.12-2.78-1-2.9-2.48L5.6,27.23c-.11-1.38,1-2.55,2.38-2.53l9.53,.16Z"/><path class="cls-8" d="M49.03,38.31l-5.97-.89-32.96,.62c-1.04,.02-1.85,.92-1.76,1.95l1.69,19.78c.07,.83,.62,1.55,1.41,1.83l3.41,1.22,34.18-24.52Z"/><polygon class="cls-7" points="21.49 23.51 22.39 36.62 40.36 36.52 39.09 24.05 21.49 23.51"/><path class="cls-6" d="M16,62.94l33.15-2.69-.12-21.94-33.66,.18c-1.38,0-2.51,1.12-2.53,2.5l-.28,18.73c-.03,1.88,1.57,3.37,3.44,3.22Z"/></g></g></g></svg>